<svg id="_0351_police" xmlns="http://www.w3.org/2000/svg" xmlns:xlink="http://www.w3.org/1999/xlink" viewBox="0 0 500 500" data-imageid="police-91" imageName="Police" class="illustrations_image" style="width: 151px;"><defs><style>.cls-1_police-91{fill:none;}.cls-1_police-91,.cls-2_police-91,.cls-3_police-91,.cls-4_police-91,.cls-5_police-91,.cls-6_police-91,.cls-7_police-91,.cls-8_police-91,.cls-9_police-91,.cls-10_police-91,.cls-11_police-91,.cls-12_police-91,.cls-13_police-91,.cls-14_police-91,.cls-15_police-91,.cls-16_police-91,.cls-17_police-91,.cls-18_police-91,.cls-19_police-91,.cls-20_police-91,.cls-21_police-91,.cls-22_police-91,.cls-23_police-91,.cls-24_police-91,.cls-25_police-91,.cls-26_police-91,.cls-27_police-91,.cls-28_police-91,.cls-29_police-91,.cls-30_police-91,.cls-31_police-91,.cls-32_police-91,.cls-33_police-91,.cls-34_police-91,.cls-35_police-91{stroke-width:0px;}.cls-2_police-91{fill:url(#linear-gradient);}.cls-3_police-91{opacity:.18;}.cls-3_police-91,.cls-29_police-91{isolation:isolate;}.cls-3_police-91,.cls-29_police-91,.cls-35_police-91{fill:#68e1fd;}.cls-4_police-91{fill:url(#linear-gradient-25-police-91);}.cls-5_police-91{fill:url(#linear-gradient-11-police-91);}.cls-6_police-91{fill:url(#linear-gradient-12-police-91);}.cls-7_police-91{fill:url(#linear-gradient-13-police-91);}.cls-8_police-91{fill:url(#linear-gradient-10-police-91);}.cls-9_police-91{fill:url(#linear-gradient-17-police-91);}.cls-10_police-91{fill:url(#linear-gradient-16-police-91);}.cls-11_police-91{fill:url(#linear-gradient-19-police-91);}.cls-12_police-91{fill:url(#linear-gradient-15-police-91);}.cls-13_police-91{fill:url(#linear-gradient-23-police-91);}.cls-14_police-91{fill:url(#linear-gradient-21-police-91);}.cls-15_police-91{fill:url(#linear-gradient-18-police-91);}.cls-16_police-91{fill:url(#linear-gradient-14-police-91);}.cls-17_police-91{fill:url(#linear-gradient-22-police-91);}.cls-18_police-91{fill:url(#linear-gradient-20-police-91);}.cls-19_police-91{fill:url(#linear-gradient-24-police-91);}.cls-20_police-91{fill:url(#linear-gradient-26-police-91);}.cls-21_police-91{fill:url(#linear-gradient-4-police-91);}.cls-22_police-91{fill:url(#linear-gradient-2-police-91);}.cls-23_police-91{fill:url(#linear-gradient-3-police-91);}.cls-24_police-91{fill:url(#linear-gradient-8-police-91);}.cls-25_police-91{fill:url(#linear-gradient-9-police-91);}.cls-26_police-91{fill:url(#linear-gradient-7-police-91);}.cls-27_police-91{fill:url(#linear-gradient-5-police-91);}.cls-28_police-91{fill:url(#linear-gradient-6-police-91);}.cls-29_police-91{opacity:.38;}.cls-30_police-91{fill:#231f20;}.cls-31_police-91{fill:#f1dfce;}.cls-32_police-91{fill:#fff;}.cls-33_police-91{fill:#ffaa71;}.cls-34_police-91{fill:#e9865d;}</style><linearGradient id="linear-gradient-police-91" x1="815.97" y1="4086.7" x2="842.73" y2="4112.55" gradientTransform="translate(-538.79 4159.34) scale(1 -1)" gradientUnits="userSpaceOnUse"><stop offset="0" stop-color="#231f20" stop-opacity="0"/><stop offset="1" stop-color="#231f20"/></linearGradient><linearGradient id="linear-gradient-2-police-91" x1="789.74" y1="3876.11" x2="847.29" y2="4082.04" xlink:href="#linear-gradient-police-91"/><linearGradient id="linear-gradient-3-police-91" x1="821.38" y1="3989.08" x2="735.64" y2="4007.37" xlink:href="#linear-gradient-police-91"/><linearGradient id="linear-gradient-4-police-91" x1="861.52" y1="3734.09" x2="731.12" y2="3991.3" xlink:href="#linear-gradient-police-91"/><linearGradient id="linear-gradient-5-police-91" x1="823.33" y1="4084.42" x2="851.5" y2="4063.14" xlink:href="#linear-gradient-police-91"/><linearGradient id="linear-gradient-6-police-91" x1="917.37" y1="3990.79" x2="811.71" y2="3971.45" xlink:href="#linear-gradient-police-91"/><linearGradient id="linear-gradient-7-police-91" x1="375.02" y1="277.84" x2="115.03" y2="29.59" gradientUnits="userSpaceOnUse"><stop offset="0" stop-color="#231f20" stop-opacity="0"/><stop offset="1" stop-color="#231f20"/></linearGradient><linearGradient id="linear-gradient-8-police-91" x1="4420.8" y1="3851.36" x2="4425.56" y2="3827.46" gradientTransform="translate(4231.03 4437.81) rotate(-173.09)" xlink:href="#linear-gradient-police-91"/><linearGradient id="linear-gradient-9-police-91" x1="803.18" y1="4087.23" x2="843.21" y2="4087.23" xlink:href="#linear-gradient-police-91"/><linearGradient id="linear-gradient-10-police-91" x1="787.28" y1="4013.5" x2="713.98" y2="3969.89" xlink:href="#linear-gradient-police-91"/><linearGradient id="linear-gradient-11-police-91" x1="834.96" y1="4066.58" x2="822.81" y2="3979.79" xlink:href="#linear-gradient-police-91"/><linearGradient id="linear-gradient-12-police-91" x1="819.73" y1="4068.7" x2="807.6" y2="3981.92" xlink:href="#linear-gradient-police-91"/><linearGradient id="linear-gradient-13-police-91" x1="724.32" y1="4053.91" x2="729.56" y2="4027.53" gradientTransform="translate(-471 4161.03) scale(1 -1)" xlink:href="#linear-gradient-police-91"/><linearGradient id="linear-gradient-14-police-91" x1="802.91" y1="3967.95" x2="718.38" y2="3970.05" gradientTransform="translate(-471 4161.03) scale(1 -1)" xlink:href="#linear-gradient-police-91"/><linearGradient id="linear-gradient-15-police-91" x1="752.31" y1="3943.35" x2="735.22" y2="3808.9" gradientTransform="translate(-471 4161.03) scale(1 -1)" xlink:href="#linear-gradient-police-91"/><linearGradient id="linear-gradient-16-police-91" x1="6.24" y1="4272.87" x2="6.68" y2="4249.46" gradientTransform="translate(-3646.38 452.6) rotate(84.21) scale(.69 -.92) skewX(3.56)" xlink:href="#linear-gradient-police-91"/><linearGradient id="linear-gradient-17-police-91" x1="783.99" y1="3941.19" x2="785.98" y2="3942.62" gradientTransform="translate(-471 4161.03) scale(1 -1)" xlink:href="#linear-gradient-police-91"/><linearGradient id="linear-gradient-18-police-91" x1="783.99" y1="3941.19" x2="785.98" y2="3942.62" gradientTransform="translate(-471 4161.03) scale(1 -1)" xlink:href="#linear-gradient-police-91"/><linearGradient id="linear-gradient-19-police-91" x1="733.23" y1="4028.42" x2="727.39" y2="3959.62" gradientTransform="translate(-471 4161.03) scale(1 -1)" xlink:href="#linear-gradient-police-91"/><linearGradient id="linear-gradient-20-police-91" x1="772.8" y1="4024.82" x2="766.96" y2="3956.02" gradientTransform="translate(-471 4161.03) scale(1 -1)" xlink:href="#linear-gradient-police-91"/><linearGradient id="linear-gradient-21-police-91" x1="842.07" y1="4020.07" x2="837.73" y2="3990.68" xlink:href="#linear-gradient-police-91"/><linearGradient id="linear-gradient-22-police-91" x1="747.54" y1="3896.57" x2="825.78" y2="3906.01" xlink:href="#linear-gradient-police-91"/><linearGradient id="linear-gradient-23-police-91" x1="732.86" y1="4016.35" x2="730.92" y2="4033.28" xlink:href="#linear-gradient-police-91"/><linearGradient id="linear-gradient-24-police-91" x1="720.37" y1="3990.17" x2="738.7" y2="3990.17" xlink:href="#linear-gradient-police-91"/><linearGradient id="linear-gradient-25-police-91" x1="845.84" y1="3720.33" x2="882.66" y2="3720.33" xlink:href="#linear-gradient-police-91"/><linearGradient id="linear-gradient-26-police-91" x1="771.62" y1="3715.94" x2="804.63" y2="3715.94" xlink:href="#linear-gradient-police-91"/></defs><g id="background_police-91"><path class="cls-3_police-91 targetColor" d="M437.66,360.54c-1.11,19.77,2.52,39.57,1.66,59.35-.87,19.78-50.32,31.46-66.68,42.72-12.49,8.61-28.48,9.98-43.64,10.64-33.24,1.42-66.53.75-99.68-2.03-17.01-1.42-34.17-3.47-50.1-9.57-30.28-11.65-53.45-37.04-69.98-64.93-6.73-11.35-12.63-23.47-15.84-36.25-1.23-4.75-2.04-9.6-2.42-14.5-1.53-20.71,5.31-41.15,7.94-61.83,4.91-38.5-4.91-77.36-4.36-116.17.23-15.74,2.23-31.73,8.62-46.11,5.95-13.41,15.53-24.96,26.1-35.09,24.4-23.3,56.67-41.54,90.38-46.6,15.11-2.3,31.07-.75,46.6-2.45,19.66-2.15,39.79-2.59,59.09,2.37,16.39,4.23,31.61,12.18,45.77,21.44,24.38,15.96,45.94,35.86,63.79,58.89,6.86,8.84,13.26,18.34,16.35,29.11,3.09,10.77,2.71,22.01,1.06,32.89-8.87,58.96-11.22,118.42-14.64,177.96l-.03.16Z" style="fill: rgb(104, 225, 253);"/><path class="cls-29_police-91 targetColor" d="M439.32,419.89c-.85,19.86-50.32,31.46-66.68,42.72-12.49,8.61-28.48,9.98-43.64,10.64-33.24,1.42-66.53.75-99.68-2.03-17.01-1.42-34.17-3.47-50.1-9.57-30.28-11.65-53.45-37.04-69.98-64.93-6.73-11.35-12.63-23.47-15.84-36.25h344.34c-1.13,19.83,2.45,39.64,1.58,59.42Z" style="fill: rgb(104, 225, 253);"/><path class="cls-1_police-91" d="M163.09,446.36c2.96,16.92,23.68,23.11,40.79,25.05,33.69,3.88,67.65,5.04,101.53,3.46,31.24-1.46,62.87-5.39,91.55-17.86,20.79-9.06,41.19-24.85,45.06-47.21,2.23-12.87-1.37-26.02-.85-39.07.65-16.63,7.91-32.18,13.1-48,26.93-82.15-7.77-180.36-80.26-227.42-35.78-23.25-68.56-67.51-111.22-70.1-26.74-1.62-53.51,9.9-72.54,28.73-19.03,18.82-30.65,44.6-34.69,71.08-4.01,26.05-1.2,53.07-8.05,78.52-7.97,29.59-28.65,55.46-31.55,85.99-2.21,23.3,6.33,46.25,14.74,68.17,10.52,27.4,27.4,59.72,32.4,88.66Z"/></g><g id="character_police-91"><path class="cls-35_police-91 targetColor" d="M264.53,71.87s-6.89-5.09-4.7-8.38c2.19-3.29,10.71-7.65,16.39-11.15,5.68-3.5,10.93-3.28,15.53-.22,4.61,3.06,17.49,9.19,18.58,11.16,1.09,1.97-5.68,7.6-5.9,9.13s-39.9-.54-39.9-.54Z" style="fill: rgb(104, 225, 253);"/><path class="cls-2_police-91" d="M264.53,71.87s-6.89-5.09-4.7-8.38c2.19-3.29,10.71-7.65,16.39-11.15,5.68-3.5,10.93-3.28,15.53-.22,4.61,3.06,17.49,9.19,18.58,11.16,1.09,1.97-5.68,7.6-5.9,9.13s-39.9-.54-39.9-.54Z"/><path class="cls-35_police-91 targetColor" d="M296.12,117.43s20.09,8.34,22.27,10.15c1.94,1.62-4.96,112.1-5.37,117.53s-29.94,6.29-42.72,3.88c-8.53-1.76-16.87-4.31-24.92-7.62,0,0-4.04-114.49-1.53-116.51s26.95-9.62,26.95-9.62l25.32,2.19Z" style="fill: rgb(104, 225, 253);"/><path class="cls-22_police-91" d="M313.01,245.1c-.41,5.42-29.94,6.29-42.72,3.88-8.53-1.75-16.87-4.3-24.92-7.61,0,0-1.29-35.66-1.93-67.53-.53-25.23-.71-48.08.4-48.97,2.51-2.03,26.95-9.62,26.95-9.62l25.32,2.11s20.58,8.91,22.76,10.72c1.93,1.68-5.45,111.6-5.86,117.02Z"/><path class="cls-35_police-91 targetColor" d="M243.44,173.8c-1.02.88-1.9,1.93-2.59,3.09-1.83,3.18-8.28,15.35-10.8,17.37s-6.69,2.38-10.17-6.27,14.05-53.31,16.39-57.11,7.53-6.06,7.53-6.06c-1.07.89-.89,23.74-.36,48.97Z" style="fill: rgb(104, 225, 253);"/><path class="cls-23_police-91" d="M243.44,173.8c-1.02.88-1.9,1.93-2.59,3.09-1.83,3.18-8.28,15.35-10.8,17.37s-6.69,2.38-10.17-6.27,14.05-53.31,16.39-57.11,7.53-6.06,7.53-6.06c-1.07.89-.89,23.74-.36,48.97Z"/><path class="cls-31_police-91" d="M262.47,427.14s2.21,14.58,1.02,16.25-8.21,1.1-12.52.16-5.36-6.54-5.36-6.54l-.3-4.61,17.15-5.26Z"/><path class="cls-31_police-91" d="M323.17,419.79s3.16,20.34,2.12,22.11-8.79-2.59-13.18-3.11-4.78-7.59-4.78-7.59l-.74-4.54,16.57-6.87Z"/><path class="cls-33_police-91" d="M296.93,106.58s-1.63,11.82-.34,16.18-4.7,17.48-13.61,18.28-10.27-14.33-10.42-16.12,2.85-6.91,1.55-11.29,21.39-12.31,22.81-7.06Z"/><path class="cls-34_police-91" d="M274.12,113.63c1.01,3.38-.74,8.83-1.29,10.14,2.14,1.77,4.85,2.7,7.62,2.59,5.35-.48,12.95-5.64,15.79-13.98,0-.14.09-.31.14-.47.25-2.98.57-5.32.57-5.32-1.45-5.27-24.12,2.68-22.84,7.04Z"/><path class="cls-35_police-91 targetColor" d="M312.12,245.18l3.68,74.81,7.04,103.68s-4.03,4.85-15.68,5.01l-20.98-105.49-9.83-53.62-8.47,52.32-3.53,108.93s-8.22.17-18.9,1.14l-6.9-107.48,6.85-83.16,66.72,3.86Z" style="fill: rgb(104, 225, 253);"/><path class="cls-21_police-91" d="M312.12,245.18l3.68,74.81,7.04,103.68s-4.03,4.85-15.68,5.01l-20.98-105.49-9.83-53.62-8.47,52.32-3.53,108.93s-8.22.17-18.9,1.14l-6.9-107.48,6.85-83.16,66.72,3.86Z"/><path class="cls-33_police-91" d="M298.97,104.42c-2.83,8.34-10.43,13.5-15.78,13.98s-11.16-4.38-13.5-10.45-2.65-29.33-2.65-29.33c-.07-1.55.23-3.1.89-4.5.85-1.92,2.15-3.61,3.79-4.92,8.48-2.2,17.41-2.01,25.79.57,1.33,1.11,2.41,2.48,3.18,4.03.18.55.3,1.13.35,1.71.74,5.62.43,21.67-2.07,28.92Z"/><path class="cls-30_police-91" d="M263.38,79.27l.6.31-.76,1.93c-.13.26-.18.54-.16.83.09.27.25.51.47.7,1.88,2.02,3.24,4.46,3.96,7.12.51-3.19.8-6.41.88-9.64-.05-1.03.11-2.06.48-3.02.85-1.79,3.18-2.86,3.25-4.84,0-.25,0-.56-.31-.63-.11-.03-.24-.03-.35,0-1.92.4-4.97.87-6.55,2.1-.63.53-1.94,4.92-1.5,5.15Z"/><path class="cls-33_police-91" d="M266.78,84.84c-1.15-.74-2.67-.49-3.52.57-.34.68-.47,1.45-.39,2.2,0,.75.07,1.51.19,2.25.45,2,1.45,3.82,2.9,5.27.33.4.73.73,1.18,1,.46.25,1,.3,1.5.14.77-.45,1.26-1.26,1.29-2.15.31-1.86.14-3.77-.49-5.55-.47-1.49-1.41-2.8-2.67-3.73Z"/><path class="cls-35_police-91 targetColor" d="M269.85,73.35s2.36,4.95,9.4,6.47c7.04,1.53,17.14-2.24,18.23-5.18,1.09-2.94-21.84-8.34-27.62-1.29Z" style="fill: rgb(104, 225, 253);"/><path class="cls-27_police-91" d="M269.85,73.35s2.36,4.95,9.4,6.47c7.04,1.53,17.14-2.24,18.23-5.18,1.09-2.94-21.84-8.34-27.62-1.29Z"/><path class="cls-33_police-91" d="M233.37,188.47s6.47-5.55-1.41-15.64c-7.88-10.08-33.09-38.91-33.09-38.91l-5.31,10.82s20.39,34.38,26.5,45.11c4.06,7.12,13.31-1.39,13.31-1.39Z"/><path class="cls-33_police-91" d="M198.93,133.92l-5.31,10.82s-12.12-8.38-12.19-9.26-1.7-13.46,0-16.26c.57-.96,2.28-.62,4.34.27,1.23.55,2.43,1.18,3.6,1.86,2.38,1.39,4.63,2.97,6.74,4.74.96,1.45,1.66,3.07,2.06,4.76.39,1.29.67,2.45.78,2.87,0,.06,0,.12-.01.18Z"/><polygon class="cls-33_police-91" points="334.91 189.62 313.58 219.25 313.54 235.18 349.83 198.27 334.91 189.62"/><path class="cls-35_police-91 targetColor" d="M318.38,127.58s10.36,3.88,13.88,12.61c3.52,8.72,32.82,48.16,27.18,54.95-2.86,3.43-35.48,35.4-35.48,35.4l-10.36-11.28,21.64-33.66-14.42-20.35c-2.75-3.89-4.02-8.64-3.6-13.39.71-7.78,1.58-19.64,1.15-24.3Z" style="fill: rgb(104, 225, 253);"/><path class="cls-28_police-91" d="M318.38,127.58s10.36,3.88,13.88,12.61c3.52,8.72,32.82,48.16,27.18,54.95-2.86,3.43-35.48,35.4-35.48,35.4l-10.36-11.28,21.64-33.66-14.42-20.35c-2.75-3.89-4.02-8.64-3.6-13.39.71-7.78,1.58-19.64,1.15-24.3Z"/><path class="cls-26_police-91" d="M344.61,181.39l-27.57,41.06-2.98-2.74.08-1.29,21.09-32.74-17.55-25.23-3.53,57.89-.56.87.48.45-.48,7.91-1.57,13.94-65.88-3.75-.45-4.49,33.5.67,13.72-3.15,14.6-17.54,5.4-62.5,5.02-9.37v2.98c.22-1.06.53-2.11.92-3.12l25.76,40.16Z"/><path class="cls-33_police-91" d="M313.63,219.27c-1.77-.54-3.58-.91-5.41-1.13-1.62,0-13.26,11.99-12.63,13.54s3.88,6.74,5.58,6.59,12.43-3.08,12.43-3.08c0,0,5.41-14.81.04-15.92Z"/><polygon class="cls-35_police-91 targetColor" points="316.22 127.16 316.16 131.12 314.85 130.68 315.02 125.79 316.22 127.16" style="fill: rgb(104, 225, 253);"/><polygon class="cls-35_police-91 targetColor" points="303.81 124.12 314.85 130.68 315.02 125.79 304.51 119.95 299.25 119.27 297.68 121.85 303.81 124.12" style="fill: rgb(104, 225, 253);"/><polygon class="cls-24_police-91" points="303.74 124.03 314.78 130.61 314.95 125.7 304.44 119.87 299.19 119.19 297.62 121.76 303.74 124.03"/><path class="cls-30_police-91" d="M300.16,79.02c.23,3.08.4,6.17.48,9.27.82-2.3,2.08-4.42,3.7-6.25.14-.13.23-.3.26-.49-.01-.14-.06-.27-.14-.39-.26-.48-.39-1.02-.38-1.57.17.08.36.08.53,0-.02-.96-.24-1.9-.62-2.78-.18-.5-.48-.94-.87-1.29-.39-.27-.83-.47-1.29-.58l-2.51-.8c-.15-.08-.33-.08-.48,0-.09.08.87,1.86.94,2.16.22.89.35,1.81.38,2.73Z"/><path class="cls-35_police-91 targetColor" d="M264.53,71.87l-.09,3.12s19.92-6.21,39.59,1.55l.44-4.13s-19.5-10.34-39.94-.54Z" style="fill: rgb(104, 225, 253);"/><path class="cls-25_police-91" d="M304.42,72.42l-.45,4.13c-.97-.39-1.94-.74-2.91-1.05-13.67-4.48-26.99-2.68-33.13-1.39-2.25.48-3.53.88-3.53.88l.14-3.12c2.31-1.1,4.72-2,7.18-2.68,8.48-2.2,17.41-2.01,25.79.57,2.38.67,4.69,1.56,6.91,2.65Z"/><path class="cls-33_police-91" d="M302.11,84.55c1.15-.74,2.67-.49,3.52.57.34.68.47,1.44.38,2.19,0,.76-.06,1.52-.18,2.27-.45,1.99-1.46,3.82-2.9,5.27-.34.39-.74.73-1.19.98-.46.26-1,.32-1.5.16-.77-.45-1.26-1.26-1.29-2.15-.31-1.86-.14-3.77.49-5.55.47-1.5,1.41-2.81,2.68-3.73Z"/><path class="cls-35_police-91 targetColor" d="M203.12,135.49l-8.39,12.95,2.1,4.8s4.72,9.06,11.65,22.17c2.27,4.28,5.18,18.32,17.09,20.54,4.79.89,14.84-14.1,11.55-18.89s-30.14-34.63-30.14-34.63l-3.86-6.95Z" style="fill: rgb(104, 225, 253);"/><path class="cls-8_police-91" d="M203.12,135.49l-8.39,12.95,2.1,4.8s4.72,9.06,11.65,22.17c2.27,4.28,5.18,18.32,17.09,20.54,4.79.89,14.84-14.1,11.55-18.89s-30.14-34.63-30.14-34.63l-3.86-6.95Z"/><path class="cls-35_police-91 targetColor" d="M295.51,115.98l-6.85,15.42-6.19,10.46,6.56-1.8,6.3,4.39,4.04-25.89-1.29-2.59c-.42-.71-1.33-.95-2.04-.53-.22.13-.41.32-.54.54Z" style="fill: rgb(104, 225, 253);"/><path class="cls-35_police-91 targetColor" d="M274.62,115.89l-.39,1.59c-1.47,6.13-.23,12.6,3.39,17.76l4.87,6.91-11.02-5.58-6.15,3.29,3.75-19.18,1.72-5.46c.53-1.14,3.3-.44,3.82.67Z" style="fill: rgb(104, 225, 253);"/><path class="cls-5_police-91" d="M295.51,115.98l-6.85,15.42-6.19,10.46,6.56-1.8,6.3,4.39,4.04-25.89-1.29-2.59c-.42-.71-1.33-.95-2.04-.53-.22.13-.41.32-.54.54Z"/><path class="cls-6_police-91" d="M274.62,115.89l-.39,1.59c-1.47,6.13-.23,12.6,3.39,17.76l4.87,6.91-11.02-5.58-6.15,3.29,3.75-19.18,1.72-5.46c.53-1.14,3.3-.44,3.82.67Z"/><polygon class="cls-35_police-91 targetColor" points="245.7 122.77 245.24 127.12 246.75 126.83 247.19 121.43 245.7 122.77" style="fill: rgb(104, 225, 253);"/><polygon class="cls-35_police-91 targetColor" points="259.7 121.05 246.75 126.83 247.19 121.43 259.48 116.4 265.32 116.33 266.71 119.37 259.7 121.05" style="fill: rgb(104, 225, 253);"/><polygon class="cls-7_police-91" points="259.48 121.09 246.51 126.86 246.97 121.47 259.25 116.44 265.1 116.37 266.49 119.41 259.48 121.09"/><polygon class="cls-16_police-91" points="279.86 140.83 270.64 228.07 274.91 242.68 280.77 242.9 276.49 228.07 284.8 140.83 279.86 140.83"/><path class="cls-35_police-91 targetColor" d="M312.12,245.18l-15.39,2.17c-2.44.34-4.91.45-7.37.32l-46.11-2.3.41-8.4,47.11,2.37c1.81.09,3.63,0,5.42-.26l17.44-2.47-1.51,8.57Z" style="fill: rgb(104, 225, 253);"/><polygon class="cls-12_police-91" points="313.01 245.1 293.05 247.77 243.24 245.43 243.66 236.98 293.21 239.84 313.44 236.64 313.01 245.1"/><rect class="cls-32_police-91" x="269.34" y="236.45" width="14.11" height="14.11" rx="2.81" ry="2.81" transform="translate(11.68 499.66) rotate(-85.44)"/><rect class="cls-35_police-91 targetColor" x="271.14" y="237.47" width="10.8" height="10.9" rx="2.16" ry="2.16" transform="translate(12.4 499.28) rotate(-85.44)" style="fill: rgb(104, 225, 253);"/><rect class="cls-10_police-91" x="271.04" y="238.41" width="10.8" height="10.9" rx="2.16" ry="2.16" transform="translate(11.38 500.04) rotate(-85.44)"/><rect class="cls-32_police-91" x="273.36" y="237.39" width="1.88" height="12.14" rx=".93" ry=".93" transform="translate(13.25 501.07) rotate(-86.21)"/><polygon class="cls-9_police-91" points="314.14 218.39 314.06 219.71 313.58 219.25 314.14 218.39"/><polygon class="cls-15_police-91" points="314.14 218.39 314.06 219.71 313.58 219.25 314.14 218.39"/><polygon class="cls-11_police-91" points="248.99 155.3 271.47 157.1 269.08 177.18 257.68 182.58 248.39 174.18 248.99 155.3"/><polygon class="cls-18_police-91" points="288.56 158.89 311.04 160.69 308.64 180.78 297.26 186.18 287.96 177.78 288.56 158.89"/><path class="cls-14_police-91" d="M299.55,144.61l-2.98,1.29c-.08.03-.15.08-.21.13-.22.23,0,.6.13.88.34,1.04.34,2.16,0,3.2-.35,1.6-.29,3.26.18,4.83.5,1.58,1.78,2.8,3.38,3.22,1.57-.76,2.97-1.84,4.1-3.17,1.14-1.32,1.75-3.01,1.71-4.75.37-.05.75-.07,1.13-.06.38,0,.78-.32.74-.7s-.34-.48-.56-.69c-.79-.74-.72-2.08-1.49-2.87-.53-.46-1.18-.75-1.88-.83-1.57-.36-2.67-1.28-4.26-.48Z"/><path class="cls-35_police-91 targetColor" d="M229.83,233.87l11.65,2.68c1.4.32,2.83-.46,3.31-1.81l6.95-19.21c.53-1.46,2.11-2.23,3.59-1.75l1.55.52c1.47.49,2.28,2.07,1.83,3.55l-25.72,83.95c-.46,1.5-2.05,2.35-3.55,1.9-.11-.03-.22-.08-.33-.12h0c-1.29-.56-1.98-1.97-1.63-3.33l13.89-54.14c.39-1.53-.54-3.09-2.07-3.48-.02,0-.05-.01-.07-.02l-10.91-2.47c-1.55-.36-2.51-1.9-2.15-3.45.01-.06.03-.13.05-.19l.22-.69c.44-1.44,1.93-2.29,3.39-1.94Z" style="fill: rgb(104, 225, 253);"/><path class="cls-17_police-91" d="M229.83,233.87l11.65,2.68c1.4.32,2.83-.46,3.31-1.81l6.95-19.21c.53-1.46,2.11-2.23,3.59-1.75l1.55.52c1.47.49,2.28,2.07,1.83,3.55l-25.72,83.95c-.46,1.5-2.05,2.35-3.55,1.9-.11-.03-.22-.08-.33-.12h0c-1.29-.56-1.98-1.97-1.63-3.33l13.89-54.14c.39-1.53-.54-3.09-2.07-3.48-.02,0-.05-.01-.07-.02l-10.91-2.47c-1.55-.36-2.51-1.9-2.15-3.45.01-.06.03-.13.05-.19l.22-.69c.44-1.44,1.93-2.29,3.39-1.94Z"/><path class="cls-35_police-91 targetColor" d="M200.4,131.6c-.43.76-.94,1.47-1.53,2.11-.1-.43-.39-1.59-.78-2.87.43-.74.67-1.58.71-2.43-.02-1.35-.34-2.68-.96-3.88-.48-1.23-1.21-2.35-2.15-3.28-.96-.94-2.31-1.38-3.64-1.19-.96.35-1.89.78-2.77,1.29-1.15-.69-2.33-1.31-3.55-1.86.05-.08.1-.14.17-.21,1.08-.83,2.29-1.48,3.59-1.92,3.76-.81,7.66.58,10.06,3.59,2.32,3.09,2.64,7.24.84,10.65Z" style="fill: rgb(104, 225, 253);"/><path class="cls-35_police-91 targetColor" d="M198.87,133.74c-.29.34-.59.66-.92.96-1.17,1.14-3.59,4.18-5.18,4.4s-5.8-.12-5.63-6.32c0-1.39,5.8,1.62,8.14.63,1.21-.52,2.21-1.43,2.83-2.59.36,1.32.65,2.49.75,2.91Z" style="fill: rgb(104, 225, 253);"/><path class="cls-13_police-91" d="M198.87,133.74c-.29.34-.59.66-.92.96-1.17,1.14-3.59,4.18-5.18,4.4s-5.8-.12-5.63-6.32c0-1.39,5.8,1.62,8.14.63,1.21-.52,2.21-1.43,2.83-2.59.36,1.32.65,2.49.75,2.91Z"/><path class="cls-35_police-91 targetColor" d="M189.45,139.49c-.21.41-.35.84-.43,1.29-.09.46.04.94.35,1.29.05.07.12.11.19.13.05.01.1.01.16,0,.53,0,.85-.58,1.09-1.06.31-.68.58-1.38.79-2.1.17-.41.2-.87.06-1.29-.72-1.8-1.98,1.23-2.21,1.73Z" style="fill: rgb(104, 225, 253);"/><path class="cls-35_police-91 targetColor" d="M188.07,143.87c-.22.4-.36.84-.44,1.29-.08.46.05.93.35,1.29.05.07.13.11.21.13h.14c.53,0,.85-.6,1.09-1.07.31-.67.58-1.37.79-2.08.17-.41.2-.87.08-1.29-.8-1.8-2.06,1.23-2.21,1.73Z" style="fill: rgb(104, 225, 253);"/><path class="cls-35_police-91 targetColor" d="M186.94,147.85c-.21.41-.35.84-.43,1.29-.08.46.04.94.35,1.29.05.06.12.1.19.13.05.01.1.01.16,0,.53,0,.85-.58,1.09-1.06.32-.68.58-1.38.79-2.1.17-.41.2-.87.08-1.29-.74-1.8-1.99,1.23-2.23,1.73Z" style="fill: rgb(104, 225, 253);"/><path class="cls-35_police-91 targetColor" d="M186.2,152.97c-.06.46-.06.92,0,1.37.07.46.33.86.72,1.1.08.02.16.02.23,0,.05.01.1.01.14,0,.43-.29.7-.77.7-1.29.09-.74.13-1.49.1-2.24.04-.46-.08-.92-.34-1.29-1.24-1.46-1.5,1.81-1.57,2.36Z" style="fill: rgb(104, 225, 253);"/><path class="cls-35_police-91 targetColor" d="M186.15,157.25c-.06.46-.06.92,0,1.37.08.46.34.86.74,1.1.08.03.16.03.23,0,.05.01.1.01.14,0,.43-.29.69-.77.7-1.29.09-.74.13-1.48.1-2.23.04-.46-.08-.91-.34-1.29-1.27-1.48-1.51,1.8-1.58,2.34Z" style="fill: rgb(104, 225, 253);"/><path class="cls-35_police-91 targetColor" d="M189.36,158.41c-1.54-.1-3.07.28-4.39,1.09-1.05.65-.27,3.02-.8,4.7-.8,2.5-2.59,4.63-2.59,6.6,0,5.06,4.11,9.16,9.17,9.16,5.06,0,9.16-4.11,9.16-9.17,0-4.06-2.67-7.63-6.56-8.79-.83-.25-3.03-3.6-3.99-3.6ZM190.91,177.83c-3.76,0-6.81-3.05-6.81-6.81s3.05-6.81,6.81-6.81c3.76,0,6.81,3.05,6.81,6.81h0c-.04,3.72-3.04,6.72-6.76,6.74l-.05.06Z" style="fill: rgb(104, 225, 253);"/><path class="cls-19_police-91" d="M189.36,158.41c-1.54-.1-3.07.28-4.39,1.09-1.05.65-.27,3.02-.8,4.7-.8,2.5-2.59,4.63-2.59,6.6,0,5.06,4.11,9.16,9.17,9.16,5.06,0,9.16-4.11,9.16-9.17,0-4.06-2.67-7.63-6.56-8.79-.83-.25-3.03-3.6-3.99-3.6ZM190.91,177.83c-3.76,0-6.81-3.05-6.81-6.81s3.05-6.81,6.81-6.81c3.76,0,6.81,3.05,6.81,6.81h0c-.04,3.72-3.04,6.72-6.76,6.74l-.05.06Z"/><path class="cls-30_police-91" d="M307.16,427.32c-.53,5.84.97,11.65,2.45,17.33.21,1.14.65,2.22,1.29,3.18.72.8,1.6,1.44,2.59,1.88,6.39,3.4,13.42,5.43,20.63,5.97,1.3.15,2.61.09,3.88-.18,4.19-1.05,6.47-6.05,5.66-10.28s-4.18-7.61-7.94-9.75c-1.77-1.02-3.68-1.83-5.37-2.96-1.81-1.23-3.34-2.82-4.49-4.67-.88-1.41-1.44-4.96-2.99-5.5s-5.79,1.98-7.35,2.51c-2.74.93-5.52,1.76-8.36,2.47Z"/><path class="cls-30_police-91" d="M264.07,426.75c1.9,5.55,1.83,11.55,1.73,17.42.05,1.16-.13,2.32-.53,3.4-.5.94-1.19,1.76-2.02,2.42-5.41,4.82-11.75,8.46-18.64,10.71-1.25.46-2.56.71-3.88.75-4.32,0-7.77-4.34-7.95-8.65s2.27-8.39,5.4-11.35c1.49-1.41,3.15-2.59,4.53-4.16,1.46-1.62,2.56-3.53,3.25-5.61.52-1.58.21-5.18,1.59-6.06s6.1.56,7.77.7c2.92.28,5.83.41,8.75.41Z"/><path class="cls-4_police-91" d="M307.16,427.32c-.53,5.84.97,11.65,2.45,17.33.21,1.14.65,2.22,1.29,3.18.72.8,1.6,1.44,2.59,1.88,6.39,3.4,13.42,5.43,20.63,5.97,1.3.15,2.61.09,3.88-.18,4.19-1.05,6.47-6.05,5.66-10.28s-4.18-7.61-7.94-9.75c-1.77-1.02-3.68-1.83-5.37-2.96-1.81-1.23-3.34-2.82-4.49-4.67-.88-1.41-1.44-4.96-2.99-5.5s-5.79,1.98-7.35,2.51c-2.74.93-5.52,1.76-8.36,2.47Z"/><path class="cls-20_police-91" d="M264.07,426.75c1.9,5.55,1.83,11.55,1.73,17.42.05,1.16-.13,2.32-.53,3.4-.5.94-1.19,1.76-2.02,2.42-5.41,4.82-11.75,8.46-18.64,10.71-1.25.46-2.56.71-3.88.75-4.32,0-7.77-4.34-7.95-8.65s2.27-8.39,5.4-11.35c1.49-1.41,3.15-2.59,4.53-4.16,1.46-1.62,2.56-3.53,3.25-5.61.52-1.58.21-5.18,1.59-6.06s6.1.56,7.77.7c2.92.28,5.83.41,8.75.41Z"/></g></svg>